PathFileType	4	(X/Y/Z)	 s04c0201.trc
DataRate	CameraRate	NumFrames	NumMarkers	Units	OrigDataRate	OrigDataStartFrame	OrigNumFrames
200	200	4	51	mm	200	751	2000
Frame#	Time	racr			lacr			c7			jug			rlel			rdr			llel			ldr			s2			lic			ric			lasi			rasi			rpsi			lpsi			rgt			lgt			rth1			rth2			rth3			rth4			rlfc			rmfc			rsh1			rsh2			rsh3			rsh4			rlmal			rmmal			rcal			rtoe			rmt5			lth1			lth2			lth4			lth3			llfc			lmfc			lsh1			lsh2			lsh3			lsh4			llmal			lmmal			lcal			ltoe			lmt1			lmt5			SBIKE			LBIKE			RBIKE			
		X1	Y1	Z1	X2	Y2	Z2	X3	Y3	Z3	X4	Y4	Z4	X5	Y5	Z5	X6	Y6	Z6	X7	Y7	Z7	X8	Y8	Z8	X9	Y9	Z9	X10	Y10	Z10	X11	Y11	Z11	X12	Y12	Z12	X13	Y13	Z13	X14	Y14	Z14	X15	Y15	Z15	X16	Y16	Z16	X17	Y17	Z17	X18	Y18	Z18	X19	Y19	Z19	X20	Y20	Z20	X21	Y21	Z21	X22	Y22	Z22	X23	Y23	Z23	X24	Y24	Z24	X25	Y25	Z25	X26	Y26	Z26	X27	Y27	Z27	X28	Y28	Z28	X29	Y29	Z29	X30	Y30	Z30	X31	Y31	Z31	X32	Y32	Z32	X33	Y33	Z33	X34	Y34	Z34	X35	Y35	Z35	X36	Y36	Z36	X37	Y37	Z37	X38	Y38	Z38	X39	Y39	Z39	X40	Y40	Z40	X41	Y41	Z41	X42	Y42	Z42	X43	Y43	Z43	X44	Y44	Z44	X45	Y45	Z45	X46	Y46	Z46	X47	Y47	Z47	X48	Y48	Z48	X49	Y49	Z49	X50	Y50	Z50	X51	Y51	Z51	
751	3.7550	482.656644	1386.563374	-111.230231	481.974712	1381.529484	-379.603301	448.681724	1445.420235	-246.567382	445.822787	1288.407957	-251.587222	442.999810	1094.241851	31.421941	675.461726	951.082448	-83.229971	465.984552	1129.638280	-540.271566	678.582314	950.011835	-449.603752	-88.315126	1168.965969	-305.189015	88.668004	1186.095566	-443.357650	41.058818	1202.349450	-124.350477	117.874628	1145.682211	-391.874290	97.577232	1163.291702	-163.191474	-69.028636	1219.693204	-263.469625	-61.472665	1217.203940	-336.489893	6.525476	1145.080451	-107.645930	53.012182	1077.219147	-467.990242	144.696519	1051.931239	-91.619130	228.604501	1024.944465	-100.007248	288.100625	963.719009	-103.492087	245.815212	1055.023434	-115.608729	396.405210	870.520680	-124.169789	383.263164	844.822053	-236.443301	349.604212	750.845766	-97.431487	344.948093	664.048560	-109.919211	293.937806	594.993889	-115.768453	377.790281	657.127622	-131.430097	257.796698	446.934696	-118.804060	277.240220	456.691887	-203.754520	191.752318	404.453530	-156.611252	489.668956	432.897452	-144.764295	427.769201	398.511779	-88.890959	113.318202	1007.697390	-471.902623	187.483645	962.819192	-467.498555	211.441514	986.501054	-454.693634	230.967059	885.183666	-468.840722	306.752862	752.012364	-443.438592	323.308370	724.877414	-331.795567	253.891486	643.792734	-466.461818	217.081042	568.403295	-443.230095	146.715054	514.138159	-445.683077	237.716058	556.292500	-411.921043	51.645479	400.661272	-443.501150	45.431000	401.360226	-354.077539	-27.939079	423.542556	-404.681167	206.825776	227.672839	-400.197615	NaN	NaN	NaN	131.548010	245.036907	-463.884429	-179.719557	938.540674	-280.263546	-4.173253	85.379018	-483.934969	-15.961561	80.345145	-83.313743	
752	3.7600	483.002544	1386.146148	-110.853287	482.456858	1381.097702	-379.187944	449.218832	1445.185444	-245.853252	446.113017	1287.995219	-251.255591	442.022434	1093.716406	31.324437	675.013801	950.945343	-83.054964	465.433890	1129.436571	-539.600385	678.545512	949.995947	-449.617159	-87.700908	1169.540640	-304.146136	88.854573	1186.372922	-442.969556	41.789627	1202.194239	-123.967099	118.169353	1146.170590	-391.373142	99.090307	1163.746170	-162.266272	-66.535039	1218.765975	-263.744366	-61.273153	1217.395365	-336.219892	7.389221	1144.032730	-107.504004	54.335517	1077.727522	-467.677137	144.126484	1048.243748	-91.393493	227.461218	1019.538439	-99.985532	285.780204	957.391916	-103.766702	245.426352	1049.486932	-114.934867	393.372291	863.330069	-124.497028	379.684381	837.635897	-236.829428	347.851773	742.684461	-97.341502	344.753152	655.857518	-110.081839	294.684513	585.823970	-115.086459	377.356591	649.300452	-131.138193	260.668606	436.910521	-117.855279	279.984569	446.950200	-203.213984	194.928732	394.110484	-155.336472	493.001245	423.195281	-145.238709	431.441573	388.792757	-89.016384	114.823110	1008.883160	-471.288673	189.419683	964.783842	-467.011105	213.209483	988.670455	-454.268900	233.667759	887.452602	-468.358086	311.117612	756.356633	-442.104520	327.392597	728.952066	-330.742044	256.620214	649.572944	-465.821515	218.401657	574.865199	-442.587015	147.059056	521.930498	-445.142525	238.798730	562.246356	-411.337836	50.067589	410.346842	-443.132912	43.607460	411.651195	-354.129541	-29.380750	434.237194	-404.614833	203.207293	236.119221	-400.444467	NaN	NaN	NaN	128.196071	254.228155	-463.885101	-179.593325	938.510845	-279.700609	-4.154934	85.387224	-483.920444	-15.950540	80.333560	-83.299156	
753	3.7650	483.503393	1385.797175	-110.537740	483.217238	1380.767807	-378.917212	449.781317	1445.024119	-245.343846	446.483645	1287.740952	-251.083129	441.185486	1093.113988	31.066198	674.651554	950.810142	-82.865626	465.202491	1129.354410	-539.065769	678.739315	950.037607	-449.599809	-86.993497	1170.102276	-303.525333	89.187437	1186.998261	-442.730800	42.595555	1202.095548	-123.183440	118.697559	1146.852785	-391.192091	98.542007	1164.536739	-164.265866	-70.795659	1221.540100	-259.000327	-61.047358	1217.671510	-335.540066	8.271116	1143.592100	-107.379422	55.394050	1078.679504	-467.546012	143.372925	1045.011216	-91.197283	226.139978	1014.677783	-99.915669	283.297557	951.609546	-104.204442	244.743740	1044.546823	-114.442956	390.217353	856.327905	-125.051864	376.058312	830.511511	-237.320220	346.376961	734.439096	-96.981537	344.277162	647.704672	-109.734364	295.319247	576.962849	-114.592800	376.974016	641.543585	-130.963923	263.250340	427.344271	-116.690829	282.512116	438.338996	-201.165655	197.608330	384.316931	-153.466280	495.925593	413.253234	-145.876091	434.737570	378.827584	-89.156266	116.051004	1010.180094	-470.934429	191.052763	966.724325	-466.693536	214.648531	990.941932	-453.965876	236.097893	889.920905	-467.993379	315.134231	760.779524	-441.040973	331.339631	732.992159	-329.781893	259.163570	655.469030	-465.190091	219.660315	581.321373	-442.012413	147.416112	529.722921	-444.575227	239.856164	568.198894	-410.933118	48.682210	420.086728	-442.758444	42.810076	420.999153	-353.799238	-30.824497	444.725040	-404.290826	199.617152	244.140221	-399.503405	NaN	NaN	NaN	125.366285	263.708765	-463.889290	-179.507927	938.542511	-279.639984	-4.158641	85.394019	-483.907346	-15.942780	80.335222	-83.294735	
754	3.7700	484.026928	1385.529189	-110.421473	483.861948	1380.306376	-378.612552	450.529920	1444.921863	-244.808309	446.942849	1287.477297	-250.863040	440.613351	1092.701172	30.793707	674.431332	950.643764	-82.652446	465.290733	1129.322582	-538.713688	679.195134	950.060313	-449.489115	-86.393193	1170.982523	-302.823788	89.465618	1187.831972	-442.444671	43.443850	1202.346684	-122.767353	119.055121	1147.615813	-390.997239	99.552907	1165.111098	-163.922024	-69.655512	1221.983627	-258.460590	-60.556123	1218.489342	-334.923456	9.076150	1143.487969	-107.278354	56.071410	1080.030602	-467.420240	142.421380	1042.038901	-91.200542	224.655322	1010.317292	-99.699923	280.804820	946.413416	-104.518647	243.790680	1040.039193	-114.118289	386.858979	849.473675	-125.510142	374.080415	823.948172	-237.960895	345.098625	726.251910	-96.448407	343.934645	639.577680	-109.336968	295.651304	568.236140	-113.650405	376.628493	633.737395	-130.875889	265.556123	418.161496	-115.342672	285.028818	428.538534	-200.629854	200.278216	374.682684	-151.823113	498.675114	402.924445	-146.249301	437.633302	368.687969	-89.160896	116.986840	1011.507658	-470.711056	192.449667	968.858099	-466.390984	215.763984	993.333831	-453.651561	238.291815	892.555512	-467.651687	319.116761	765.337368	-440.070329	335.048446	737.382408	-329.012253	261.681951	661.342320	-464.720871	220.969491	587.929752	-441.565523	147.900063	537.397369	-444.049499	240.932894	574.338337	-410.462626	47.446843	429.742216	-442.480870	42.131373	430.834425	-353.968841	-32.023109	455.124096	-404.143557	197.237906	253.520451	-399.483340	NaN	NaN	NaN	123.037941	273.294244	-463.837366	-179.497025	938.533452	-279.532091	-4.176666	85.423211	-483.903778	-15.931877	80.334084	-83.292225	
